<?xml version="1.0" encoding="UTF-8"?> <svg xmlns="http://www.w3.org/2000/svg" width="410" height="300" viewBox="0 0 410 300" fill="none"><rect y="-0.000488281" width="410" height="300" fill="#1D1D1D"></rect><g clip-path="url(#clip0_5003_12399)"><path d="M157.746 166.215C157.746 163.077 158.977 160.621 161.481 158.847C163.942 157.073 167.379 156.208 171.75 156.208C173.617 156.208 175.4 156.345 177.14 156.572C177.012 153.889 176.333 151.978 175.103 150.795C173.872 149.613 171.835 149.067 168.992 149.067C166.403 149.067 163.687 149.613 160.759 150.659V145.701C163.56 144.564 166.573 143.972 169.713 143.972C173.83 143.972 177.055 145.11 179.304 147.429C181.553 149.704 182.699 153.024 182.699 157.3V166.488C182.699 167.171 182.614 167.853 182.529 168.535C182.402 169.218 182.105 170.082 181.638 171.128C181.171 172.174 180.535 173.129 179.686 173.903C178.88 174.676 177.649 175.358 175.994 175.95C174.381 176.541 172.472 176.814 170.35 176.814C168.143 176.814 166.233 176.496 164.578 175.904C162.923 175.313 161.693 174.631 160.844 173.812C159.995 173.039 159.359 172.083 158.849 170.992C158.34 169.9 158.043 169.036 157.916 168.308C157.831 167.58 157.746 166.898 157.746 166.215ZM163.178 166.125C163.178 169.718 165.554 171.492 170.307 171.492C170.307 171.492 170.35 171.492 170.392 171.492C174.891 171.492 177.097 169.763 177.097 166.306V161.166C175.654 160.939 173.957 160.803 171.962 160.757C171.156 160.757 170.35 160.848 169.459 160.984C168.567 161.121 167.634 161.394 166.658 161.712C165.639 162.031 164.833 162.577 164.154 163.35C163.517 164.169 163.178 165.078 163.178 166.125Z" fill="white"></path><path d="M187.156 176.268V147.156C192.121 145.019 196.917 143.972 201.627 143.972V149.34C198.657 149.385 195.686 149.84 192.588 150.659V176.268H187.156Z" fill="white"></path><path d="M200.48 176.268V170.719H206.04V176.268H200.48Z" fill="white"></path><path d="M211.727 139.56V133.42H217.498V139.56H211.727ZM211.896 176.268V144.473H217.328V176.268H211.896Z" fill="white"></path><path d="M223.609 176.268V147.157C227.726 144.973 231.927 143.882 236.256 143.882C240.032 143.882 242.961 144.928 245.082 147.02C247.204 149.113 248.265 152.024 248.265 155.754V176.268H242.706V155.299C242.706 153.434 242.239 151.933 241.348 150.887C240.457 149.795 238.674 149.249 235.958 149.249C233.54 149.249 231.206 149.613 228.956 150.386V176.223H223.609V176.268Z" fill="white"></path><path d="M251.617 149.567V144.473H255.776V142.926C255.776 135.012 259.086 131.054 265.664 131.054C266.767 131.054 267.828 131.191 268.889 131.509V136.558C268.083 136.376 267.361 136.331 266.682 136.331C265.791 136.331 265.07 136.376 264.603 136.467C264.136 136.558 263.584 136.786 262.948 137.149C262.311 137.513 261.887 138.196 261.632 139.151C261.378 140.106 261.208 141.38 261.208 142.926V144.473H268.889V149.567H261.208V176.268H255.776V149.567H251.617Z" fill="white"></path><path d="M271.222 168.581C270.374 166.307 269.949 163.577 269.949 160.348C269.949 157.118 270.374 154.389 271.222 152.115C272.071 149.84 273.174 148.157 274.617 147.066C276.06 145.929 277.545 145.155 279.031 144.7C280.516 144.246 282.171 144.018 283.953 144.018C285.736 144.018 287.391 144.246 288.876 144.7C290.361 145.155 291.847 145.974 293.289 147.066C294.732 148.203 295.878 149.886 296.684 152.115C297.533 154.389 297.957 157.118 297.957 160.348C297.957 163.577 297.533 166.307 296.684 168.581C295.836 170.855 294.732 172.538 293.289 173.63C291.847 174.767 290.361 175.54 288.876 175.995C287.391 176.45 285.736 176.678 283.953 176.678C282.171 176.678 280.516 176.45 279.031 175.995C277.545 175.54 276.06 174.722 274.617 173.63C273.217 172.538 272.071 170.855 271.222 168.581ZM276.187 154.526C275.763 156.072 275.551 158.028 275.551 160.393C275.551 162.759 275.763 164.715 276.187 166.261C276.612 167.808 277.291 168.945 278.139 169.673C278.988 170.4 279.879 170.901 280.771 171.174C281.662 171.401 282.723 171.538 283.996 171.538C285.269 171.538 286.33 171.401 287.221 171.174C288.112 170.946 289.003 170.446 289.852 169.673C290.701 168.945 291.38 167.808 291.804 166.261C292.228 164.715 292.441 162.759 292.441 160.393C292.441 158.028 292.228 156.072 291.804 154.526C291.38 152.979 290.701 151.842 289.852 151.114C289.003 150.386 288.112 149.886 287.221 149.613C286.33 149.386 285.269 149.249 283.996 149.249C282.723 149.249 281.662 149.386 280.771 149.613C279.879 149.84 278.988 150.341 278.139 151.114C277.248 151.842 276.612 152.979 276.187 154.526Z" fill="white"></path><path d="M142.257 160.484C141.875 160.484 141.536 160.439 141.154 160.348C138.183 159.711 136.231 156.572 136.825 153.388C137.25 151.023 138.99 149.203 141.154 148.749L148.071 127.142C148.156 126.869 148.41 126.688 148.623 126.688C148.665 126.688 148.75 126.688 148.792 126.733L150.193 127.188C150.49 127.279 150.66 127.643 150.617 127.961L145.737 150.022C147.265 151.387 147.986 153.57 147.604 155.708C147.18 158.483 144.888 160.484 142.257 160.484Z" fill="black"></path><path d="M145.143 150.295L150.108 127.825L148.707 127.37L141.663 149.34C139.626 149.613 137.886 151.25 137.461 153.525C136.91 156.39 138.65 159.165 141.323 159.711C143.997 160.302 146.585 158.437 147.095 155.572C147.477 153.525 146.628 151.478 145.143 150.295Z" fill="black"></path><path d="M137.802 177.724C130.715 177.178 126.344 174.13 123.416 169.491C120.87 165.442 119.469 158.801 121.209 150.113C122.864 141.926 126.386 136.74 130.503 134.602C134.662 132.419 139.712 132.646 143.955 133.511C144.04 133.511 144.083 133.556 144.167 133.556L146.417 126.551C146.756 125.505 147.647 124.823 148.708 124.823C148.963 124.823 149.175 124.868 149.387 124.914L150.788 125.368C152.018 125.778 152.74 127.097 152.443 128.416L150.788 135.876C152.782 136.968 154.649 138.378 156.219 140.197L166.489 122.958C161.397 119.683 154.692 118.318 147.732 118.045C144.974 117.909 138.141 118.591 135.638 119.091C133.134 119.592 130.545 120.547 127.787 121.957C125.071 123.412 122.694 125.277 120.7 127.552C118.705 129.826 116.923 132.919 115.438 136.74C113.91 140.607 112.892 145.064 112.382 150.159C111.831 155.253 111.958 159.711 112.637 163.577C113.358 167.444 114.462 170.491 115.989 172.766C117.517 175.04 119.469 176.905 121.888 178.361C124.307 179.816 126.726 180.771 129.102 181.272C131.521 181.772 134.11 182 136.868 182C143.149 182 150.491 180.271 156.814 177.769L156.389 176.041C149.43 178.543 142.64 178.088 137.802 177.724Z" fill="white"></path><path d="M142.257 160.484C141.875 160.484 141.536 160.439 141.154 160.348C138.183 159.711 136.231 156.572 136.825 153.388C137.25 151.023 138.99 149.203 141.154 148.749L148.071 127.142C148.156 126.869 148.41 126.688 148.623 126.688C148.665 126.688 148.75 126.688 148.792 126.733L150.193 127.188C150.49 127.279 150.66 127.643 150.617 127.961L145.737 150.022C147.265 151.387 147.986 153.57 147.604 155.708C147.18 158.483 144.888 160.484 142.257 160.484Z" fill="white"></path></g><defs><clipPath id="clip0_5003_12399"><rect width="186" height="64" fill="white" transform="translate(112 118)"></rect></clipPath></defs></svg> 